<svg width="73" height="29" viewBox="0 0 73 29" fill="none" xmlns="http://www.w3.org/2000/svg">
<path d="M0 19.7713L20.6309 0L20.6855 0.0569891L20.7031 0.0364281L25.8061 3.54473C25.2107 4.22513 24.5941 4.99057 23.9563 5.84107C23.3184 6.73409 22.723 7.66964 22.1702 8.64771C21.6174 9.66831 21.1496 10.7102 20.7669 11.7733C20.4267 12.8364 20.2566 13.9421 20.2566 15.0902C20.2566 17.0038 20.7031 18.471 21.5961 19.4916C22.5317 20.5121 23.7862 21.0224 25.3596 21.0224C26.7204 21.0224 27.8685 20.5334 28.8041 19.5553C29.7396 18.5773 30.6327 17.2377 31.4832 15.5367L33.4606 11.3906C33.9283 10.3274 34.5024 9.2218 35.1828 8.07363C35.8632 6.92546 36.6712 5.86233 37.6067 4.88426C38.5848 3.94872 39.7117 3.16201 40.9875 2.52413C42.3057 1.92879 43.8154 1.63111 45.5164 1.63111C47.0898 1.63111 48.5569 1.90752 49.9177 2.46035C51.321 3.05569 52.533 3.90619 53.5536 5.01184C54.5741 6.11748 55.3821 7.47828 55.9775 9.09422C56.4657 10.4544 56.7538 11.9718 56.8416 13.6466L68.7696 2.21565L73 6.63003L52.3691 26.4013L52.3438 26.3748C52.1552 26.6141 51.9631 26.85 51.7675 27.0822L46.9197 23.7653C47.3024 23.2975 47.7064 22.7447 48.1316 22.1068C48.1492 22.0828 48.1668 22.0587 48.1843 22.0345L48.1387 21.9869L48.3773 21.7582C48.7494 21.209 49.0928 20.6023 49.4074 19.9381C49.7901 19.1726 50.109 18.3434 50.3642 17.4504C50.6193 16.5573 50.7469 15.6431 50.7469 14.7075C50.7469 13.9421 50.6406 13.1979 50.428 12.475C50.2154 11.7946 49.8964 11.1779 49.4712 10.6251C49.0884 10.1148 48.5994 9.68957 48.0041 9.34937C47.4087 9.00917 46.7283 8.83907 45.9629 8.83907C44.6446 8.83907 43.5389 9.26432 42.6459 10.1148C41.7954 11.0078 40.8811 12.4324 39.9031 14.3886L37.4792 19.2364C36.8838 20.3846 36.2247 21.4902 35.5017 22.5533C34.8213 23.6165 34.0134 24.552 33.0778 25.36C32.1423 26.2105 31.0792 26.8909 29.8885 27.4012C28.7403 27.9115 27.422 28.1666 25.9337 28.1666C24.2327 28.1666 22.638 27.8477 21.1496 27.2098C19.7038 26.6145 18.4493 25.7427 17.3862 24.5945C16.323 23.4464 15.4938 22.0218 14.8985 20.3208C14.3136 18.6916 14.016 16.8572 14.0057 14.8177L4.23044 24.1856L0 19.7713Z" fill="#1E1E1E"/>
</svg>
